<!-- aether: representing the pure cosmic energy of creativity -->

<svg viewBox="0 0 100 100" xmlns="http://www.w3.org/2000/svg">
  <!-- Outer ring -->
  <circle cx="50" cy="50" r="45" fill="#FFD700" stroke="#B8860B" stroke-width="2"/>
  <!-- Inner design -->
  <circle cx="50" cy="50" r="40" fill="#FFE55C"/>
  <!-- Spiral pattern -->
  <path d="M50 50 L50 20 A30 30 0 0 1 80 50 A30 30 0 0 1 50 80 A30 30 0 0 1 20 50 A30 30 0 0 1 50 20" 
        fill="none" stroke="#B8860B" stroke-width="2"/>
  <!-- Central star -->
  <path d="M50 20 L55 45 L80 50 L55 55 L50 80 L45 55 L20 50 L45 45 Z" 
        fill="#B8860B"/>
  <!-- Mystical symbols -->
  <circle cx="50" cy="50" r="5" fill="#B8860B"/>
  <circle cx="50" cy="50" r="3" fill="#FFE55C"/>
</svg>