<?xml version="1.0" standalone="no"?>
<!DOCTYPE svg PUBLIC "-//W3C//DTD SVG 20010904//EN"
 "http://www.w3.org/TR/2001/REC-SVG-20010904/DTD/svg10.dtd">
<svg version="1.0" xmlns="http://www.w3.org/2000/svg"
 width="300.000000pt" height="305.000000pt" viewBox="0 0 300.000000 305.000000"
 preserveAspectRatio="xMidYMid meet">
<metadata>
Created by potrace 1.10, written by Peter Selinger 2001-2011
</metadata>
<g transform="translate(0.000000,305.000000) scale(0.100000,-0.100000)"
fill="#000000" stroke="none">
<path d="M1480 2543 c-8 -3 -36 -23 -61 -44 -31 -26 -57 -39 -76 -39 -50 0
-181 -38 -274 -79 -292 -129 -508 -379 -586 -680 -36 -140 -36 -325 1 -466 79
-304 283 -551 571 -695 170 -85 256 -104 460 -105 135 0 174 4 250 24 185 47
365 151 506 291 132 131 222 280 276 457 24 79 26 104 27 243 0 128 -3 170
-22 244 -26 103 -83 229 -146 325 -53 79 -185 209 -275 270 -128 87 -342 171
-436 171 -21 0 -47 12 -76 33 -73 56 -99 65 -139 50z m127 -147 c129 -131 176
-255 130 -342 -45 -86 -133 -146 -217 -147 -86 -1 -182 59 -220 139 -28 57
-24 138 9 208 24 48 184 226 204 226 6 0 49 -38 94 -84z m-167 70 c0 -2 -21
-25 -47 -52 -88 -92 -143 -201 -143 -284 0 -43 24 -115 48 -142 8 -10 11 -18
6 -18 -13 0 -72 74 -83 103 -6 14 -6 29 0 38 5 8 9 20 9 28 0 11 -3 11 -16 1
-30 -26 -35 -48 -19 -85 20 -49 124 -156 196 -202 44 -27 59 -43 59 -60 0 -31
-161 -192 -221 -221 -81 -39 -129 -26 -197 55 -82 98 -109 188 -78 255 21 43
200 248 232 266 31 16 30 22 -2 20 -16 -2 -40 -17 -59 -38 -96 -102 -120 -130
-158 -179 -40 -52 -42 -57 -42 -125 0 -76 19 -133 63 -194 29 -40 25 -49 -9
-19 -14 12 -35 28 -48 35 -21 12 -26 11 -42 -5 -21 -21 -31 -115 -18 -171 5
-20 12 -52 15 -71 3 -19 10 -45 14 -57 13 -33 -4 -39 -43 -15 -45 28 -77 63
-86 96 -11 44 -33 52 -68 25 -56 -41 -58 -104 -7 -224 19 -44 34 -87 34 -96 0
-9 9 -33 20 -55 11 -22 20 -45 20 -51 0 -8 27 -14 78 -17 83 -5 383 -73 473
-107 31 -12 69 -32 85 -46 l29 -24 -23 -19 c-12 -11 -46 -25 -75 -31 -29 -6
-70 -22 -92 -35 -86 -52 -82 -52 -139 -22 -98 51 -229 155 -293 231 -26 31
-52 56 -58 56 -6 0 -19 14 -28 30 -10 17 -15 30 -11 30 4 0 1 6 -8 13 -24 18
-75 171 -88 266 -13 86 -6 266 11 277 5 3 7 9 5 13 -14 22 94 281 116 281 5 0
8 5 8 11 0 15 80 111 126 150 21 19 46 40 54 48 32 30 166 113 192 118 16 3
28 9 28 12 0 4 16 13 37 20 20 8 47 25 60 39 24 26 31 66 13 77 -27 17 1 28
90 39 3 0 21 8 40 18 39 19 40 20 40 14z m215 -26 c6 -3 25 -7 44 -9 52 -4 81
-18 75 -35 -4 -11 6 -18 38 -26 23 -7 75 -27 115 -45 272 -125 466 -353 540
-633 37 -140 37 -326 0 -464 -89 -336 -359 -597 -712 -689 -130 -34 -359 -34
-490 0 -374 98 -657 397 -721 763 -20 116 -14 279 16 393 79 306 314 552 637
670 37 13 69 23 70 21 2 -2 -4 -17 -14 -35 -11 -19 -31 -35 -53 -42 -19 -7
-62 -25 -95 -42 -251 -124 -427 -336 -497 -595 -30 -112 -29 -306 1 -420 97
-368 411 -637 795 -682 458 -54 891 233 1012 670 26 92 26 348 1 440 -56 208
-202 406 -386 525 -76 49 -190 105 -215 105 -8 0 -25 17 -38 38 -17 28 -24 33
-26 19 -5 -25 24 -66 56 -79 51 -20 177 -82 198 -98 12 -8 32 -22 45 -30 29
-18 174 -163 207 -205 12 -17 39 -64 60 -105 20 -41 40 -77 43 -80 3 -3 16
-45 29 -95 26 -94 33 -237 18 -338 -8 -56 -38 -168 -48 -182 -4 -5 -13 -26
-19 -45 -6 -19 -25 -51 -41 -70 -23 -28 -31 -32 -41 -23 -10 10 -9 17 8 35 11
13 28 52 38 88 9 36 29 92 44 125 14 33 25 67 25 75 -1 8 -2 25 -3 37 -1 23
-56 93 -72 93 -11 0 -39 -32 -39 -43 2 -31 -68 -100 -122 -120 -22 -8 -22 -4
-4 59 25 84 37 196 27 232 -16 54 -28 64 -60 48 -14 -8 -36 -24 -48 -36 -13
-11 -23 -18 -23 -14 0 3 -8 0 -17 -7 -9 -8 1 11 24 41 56 76 76 135 71 208 -3
51 -11 68 -50 123 -60 84 -173 197 -204 205 -37 9 -54 -10 -43 -49 12 -42 -5
-78 -66 -140 -47 -47 -87 -67 -48 -24 11 12 29 32 40 45 25 28 48 103 46 153
-1 58 -73 188 -145 262 -16 16 -28 33 -28 37 0 9 25 4 45 -10z m201 -297 c14
-9 67 -65 118 -124 121 -141 135 -187 90 -294 -19 -46 -90 -133 -127 -156 -44
-26 -83 -24 -143 10 -60 35 -216 196 -212 219 2 9 32 37 68 61 84 59 153 127
179 179 26 51 26 63 2 89 -11 12 -17 24 -14 27 9 8 11 8 39 -11z m435 -32 c16
-16 26 -32 22 -34 -5 -2 -21 11 -36 29 -36 42 -26 45 14 5z m49 -49 c0 -5 8
-17 18 -28 26 -28 95 -145 95 -161 0 -7 4 -13 9 -13 4 0 8 -9 8 -20 0 -11 5
-20 10 -20 6 0 10 -11 10 -25 0 -14 4 -25 9 -25 4 0 7 -10 6 -22 -1 -13 4 -32
10 -43 18 -30 35 -128 40 -235 2 -50 -11 -155 -27 -215 -6 -22 -13 -49 -15
-60 -6 -32 -42 -105 -53 -105 -16 0 -12 20 6 27 13 5 13 7 2 14 -9 6 -9 9 -1
9 6 0 17 25 23 55 6 30 14 55 18 55 4 0 7 84 6 188 0 152 -4 198 -19 247 -10
33 -18 72 -19 87 -1 14 -4 24 -8 22 -4 -2 -10 6 -14 18 -3 13 -19 49 -34 80
-16 31 -26 59 -22 62 3 3 1 6 -5 6 -6 0 -18 15 -27 33 -9 17 -24 42 -32 55
-10 13 -12 22 -5 22 6 0 11 -4 11 -8z m-724 -192 c-51 -53 -57 -64 -51 -90 l6
-29 -48 2 c-47 2 -48 2 -54 41 -6 36 -48 87 -82 99 -7 2 -8 8 -3 13 5 5 11 4
13 -3 2 -7 11 -9 19 -6 8 3 20 1 27 -4 31 -24 194 -3 213 28 3 5 8 9 11 9 3 0
-20 -27 -51 -60z m16 -218 c75 -61 128 -130 128 -165 0 -9 -25 -35 -55 -57
-63 -47 -97 -86 -145 -172 -20 -35 -40 -63 -45 -63 -5 0 -27 32 -47 70 -34 63
-89 124 -172 192 -26 22 -26 23 -11 60 15 38 86 112 177 184 59 46 55 47 170
-49z m-678 -56 c46 -47 118 -87 225 -126 139 -51 289 -205 279 -288 -3 -22
-14 -30 -75 -55 l-72 -30 -161 73 c-102 47 -170 84 -184 101 -42 49 -89 275
-72 343 3 14 8 26 11 26 2 0 24 -20 49 -44z m1184 -28 c3 -71 -14 -160 -48
-251 -19 -52 -27 -60 -73 -84 -79 -40 -289 -133 -300 -133 -6 0 -42 14 -80 32
l-69 32 6 35 c15 92 140 212 282 270 136 56 166 73 213 121 25 26 51 46 56 45
6 -1 11 -31 13 -67z m-885 -60 c-7 -34 -40 -38 -66 -8 -19 22 -20 20 43 42 22
8 29 -3 23 -34z m571 26 c34 -6 39 -21 15 -38 -34 -23 -46 -20 -58 15 -14 41
-14 42 7 34 9 -4 26 -8 36 -11z m-1074 -117 c0 -18 7 -42 15 -54 25 -36 405
-253 443 -253 19 0 14 -20 -5 -26 -10 -3 -45 -19 -79 -36 -69 -34 -70 -34
-251 4 l-113 23 0 37 c0 20 -13 65 -28 100 -59 131 -62 160 -21 211 27 36 39
34 39 -6z m1571 11 c35 -43 33 -76 -10 -188 -23 -58 -41 -119 -41 -136 0 -31
-1 -32 -55 -39 -30 -3 -85 -15 -123 -26 -90 -26 -112 -24 -182 11 -33 17 -66
30 -74 30 -41 0 -15 23 79 70 141 70 315 174 343 206 14 16 22 38 22 60 0 39
14 43 41 12z m-748 -298 c51 -32 109 -53 197 -70 61 -12 128 -47 114 -60 -5
-4 -51 -20 -103 -35 -102 -29 -133 -42 -198 -86 -51 -36 -79 -36 -127 -4 -62
42 -109 63 -207 90 -52 15 -98 31 -103 35 -14 13 53 48 114 60 92 18 156 41
201 71 24 16 49 29 55 29 5 0 31 -13 57 -30z m872 -82 c-6 -31 -26 -68 -37
-68 -5 0 -2 12 6 28 8 15 17 35 20 45 8 25 16 21 11 -5z m-195 -47 c0 -16 -68
-97 -111 -132 -60 -48 -197 -143 -235 -162 -30 -15 -34 -15 -55 2 -39 30 -101
58 -164 75 -68 18 -94 38 -76 59 20 25 130 68 239 94 59 14 145 35 192 48 84
23 210 33 210 16z m-681 -215 c27 -14 76 -31 109 -39 68 -16 106 -37 122 -67
13 -24 19 -20 -99 -49 -115 -28 -252 -28 -377 1 -84 19 -95 24 -92 42 4 25 52
54 125 73 31 8 78 25 103 38 25 13 49 24 53 25 4 0 29 -11 56 -24z m514 -153
c-7 -2 -28 -15 -46 -28 -31 -21 -34 -21 -30 -4 3 10 8 17 12 14 4 -2 21 4 37
14 16 10 31 16 34 13 3 -2 0 -7 -7 -9z m-203 -103 c0 -5 -8 -11 -17 -12 -28
-2 -36 -4 -67 -17 -16 -6 -35 -10 -42 -7 -7 3 -15 1 -18 -5 -2 -5 -3 -4 -2 3
1 7 29 20 62 29 73 20 84 22 84 9z m-560 -37 c51 -10 355 -11 367 -1 16 13 34
6 25 -9 -19 -31 -340 -33 -377 -3 -7 6 -19 8 -28 4 -8 -3 -18 -1 -22 5 -3 6
-17 11 -31 11 -14 0 -23 4 -19 10 4 6 16 5 33 -1 15 -6 38 -13 52 -16z"/>
</g>
</svg>
