<svg viewBox="0 0 100 100" xmlns="http://www.w3.org/2000/svg">
  <!-- Invisible boundary circle -->
  <circle cx="50" cy="50" r="44" fill="none"/>
  
  <!-- Large oval head -->
  <path d="
    M30 55
    C30 30, 70 30, 70 55
    C70 75, 30 75, 30 55
    Z" 
    fill="#1E3B8C"
    stroke="#9B4DCA"
    stroke-width="1.5"
  />
  
  <!-- Classic large alien eyes -->
  <g class="left-eye">
    <path d="
      M35 45
      C35 38, 45 38, 45 45
      C45 52, 35 52, 35 45
      Z"
      fill="#000000"
    >
      <animate 
        attributeName="d" 
        values="
          M35 45 C35 38 45 38 45 45 C45 52 35 52 35 45;
          M35 45 C35 39 45 39 45 45 C45 51 35 51 35 45;
          M35 45 C35 38 45 38 45 45 C45 52 35 52 35 45"
        dur="3s"
        repeatCount="indefinite"
      />
    </path>
    <circle cx="40" cy="45" r="2.5" fill="#FFD700">
      <animate attributeName="cy" values="45;44;45" dur="3s" repeatCount="indefinite"/>
    </circle>
  </g>
  
  <g class="right-eye">
    <path d="
      M55 45
      C55 38, 65 38, 65 45
      C65 52, 55 52, 55 45
      Z"
      fill="#000000"
    >
      <animate 
        attributeName="d" 
        values="
          M55 45 C55 38 65 38 65 45 C65 52 55 52 55 45;
          M55 45 C55 39 65 39 65 45 C65 51 55 51 55 45;
          M55 45 C55 38 65 38 65 45 C65 52 55 52 55 45"
        dur="3s"
        repeatCount="indefinite"
      />
    </path>
    <circle cx="60" cy="45" r="2.5" fill="#FFD700">
      <animate attributeName="cy" values="45;44;45" dur="3s" repeatCount="indefinite"/>
    </circle>
  </g>
  
  <!-- Small nose slits -->
  <g>
    <path d="M48 50 L50 48 L52 50" fill="none" stroke="#9B4DCA" stroke-width="0.75"/>
  </g>
  
  <!-- Thin mouth line -->
  <path d="
    M45 55
    Q50 57, 55 55"
    fill="none"
    stroke="#9B4DCA"
    stroke-width="1"
  >
    <animate 
      attributeName="d" 
      values="
        M45 55 Q50 57 55 55;
        M45 55 Q50 56 55 55;
        M45 55 Q50 57 55 55"
      dur="3s"
      repeatCount="indefinite"
    />
  </path>
  
  <!-- Cranial patterns -->
  <g opacity="0.8">
    <path d="M40 35 Q50 30 60 35" fill="none" stroke="#9B4DCA" stroke-width="0.75"/>
    <path d="M35 40 Q50 35 65 40" fill="none" stroke="#9B4DCA" stroke-width="0.75"/>
    <path d="M33 45 Q50 40 67 45" fill="none" stroke="#9B4DCA" stroke-width="0.75"/>
  </g>
  
  <!-- Energy patterns -->
  <g opacity="0.6">
    <circle cx="50" cy="65" r="0.75" fill="#FFD700">
      <animate attributeName="opacity" values="0.6;0.2;0.6" dur="2s" repeatCount="indefinite"/>
    </circle>
    <circle cx="45" cy="63" r="0.75" fill="#FFD700">
      <animate attributeName="opacity" values="0.6;0.2;0.6" dur="1.7s" repeatCount="indefinite"/>
    </circle>
    <circle cx="55" cy="63" r="0.75" fill="#FFD700">
      <animate attributeName="opacity" values="0.6;0.2;0.6" dur="2.3s" repeatCount="indefinite"/>
    </circle>
  </g>
  
  <!-- Side details suggesting advanced being -->
  <g>
    <path d="M25 50 L28 50 L28 45" fill="none" stroke="#9B4DCA" stroke-width="0.5" opacity="0.5"/>
    <path d="M75 50 L72 50 L72 45" fill="none" stroke="#9B4DCA" stroke-width="0.5" opacity="0.5"/>
  </g>
</svg>