<svg viewBox="0 0 100 100" xmlns="http://www.w3.org/2000/svg">
  <!-- Invisible boundary circle -->
  <circle cx="50" cy="50" r="44" fill="none"/>
  
  <!-- Top and bottom curl shadows -->
  <path d="M30 25 Q50 20 70 25 L70 30 Q50 25 30 30 Z" fill="#162a63"/>
  <path d="M30 70 Q50 75 70 70 L70 65 Q50 70 30 65 Z" fill="#162a63"/>
  
  <!-- Main scroll paper -->
  <path d="M30 30 L30 65 Q50 70 70 65 L70 30 Q50 25 30 30" 
        fill="#1E3B8C" 
        stroke="#9B4DCA"
        stroke-width="1"/>
  
  <!-- Top curl -->
  <path d="M30 30 Q50 25 70 30 Q70 23 65 20 Q50 15 35 20 Q30 23 30 30" 
        fill="#1E3B8C" 
        stroke="#9B4DCA"
        stroke-width="1">
    <animate
      attributeName="d"
      values="
        M30 30 Q50 25 70 30 Q70 23 65 20 Q50 15 35 20 Q30 23 30 30;
        M30 30 Q50 26 70 30 Q70 24 65 21 Q50 16 35 21 Q30 24 30 30;
        M30 30 Q50 25 70 30 Q70 23 65 20 Q50 15 35 20 Q30 23 30 30"
      dur="3s"
      repeatCount="indefinite"
    />
  </path>
  
  <!-- Bottom curl -->
  <path d="M30 65 Q50 70 70 65 Q70 72 65 75 Q50 80 35 75 Q30 72 30 65" 
        fill="#1E3B8C" 
        stroke="#9B4DCA"
        stroke-width="1">
    <animate
      attributeName="d"
      values="
        M30 65 Q50 70 70 65 Q70 72 65 75 Q50 80 35 75 Q30 72 30 65;
        M30 65 Q50 69 70 65 Q70 71 65 74 Q50 79 35 74 Q30 71 30 65;
        M30 65 Q50 70 70 65 Q70 72 65 75 Q50 80 35 75 Q30 72 30 65"
      dur="3s"
      repeatCount="indefinite"
    />
  </path>
  
  <!-- Alien text lines -->
  <g opacity="0.8">
    <!-- Line 1 -->
    <path d="M35 35 L65 35" stroke="#9B4DCA" stroke-width="0.5" opacity="0.3"/>
    <g transform="translate(35, 35)">
      <path d="M0 0 L3 0 M1.5 -1.5 L1.5 1.5" stroke="#FFD700" stroke-width="0.5"/>
      <path d="M5 0 C7 0 7 -2 5 -2 C3 -2 3 0 5 0" fill="none" stroke="#FFD700" stroke-width="0.5"/>
      <circle cx="10" cy="0" r="1" fill="#FFD700"/>
      <path d="M15 -1 L13 1 L17 1 Z" fill="#FFD700"/>
      <path d="M20 -1 C22 -1 22 1 20 1" fill="none" stroke="#FFD700" stroke-width="0.5"/>
    </g>
    
    <!-- Line 2 -->
    <path d="M35 45 L65 45" stroke="#9B4DCA" stroke-width="0.5" opacity="0.3"/>
    <g transform="translate(35, 45)">
      <circle cx="2" cy="0" r="1" fill="#FFD700"/>
      <path d="M7 -1 L5 1 L9 1 Z" fill="#FFD700"/>
      <path d="M12 0 L15 0 M13.5 -1.5 L13.5 1.5" stroke="#FFD700" stroke-width="0.5"/>
      <path d="M17 0 C19 0 19 -2 17 -2 C15 -2 15 0 17 0" fill="none" stroke="#FFD700" stroke-width="0.5"/>
    </g>
    
    <!-- Line 3 -->
    <path d="M35 55 L65 55" stroke="#9B4DCA" stroke-width="0.5" opacity="0.3"/>
    <g transform="translate(35, 55)">
      <path d="M0 0 C2 0 2 -2 0 -2 C-2 -2 -2 0 0 0" fill="none" stroke="#FFD700" stroke-width="0.5"/>
      <circle cx="5" cy="0" r="1" fill="#FFD700"/>
      <path d="M10 -1 L8 1 L12 1 Z" fill="#FFD700"/>
      <path d="M15 0 L18 0 M16.5 -1.5 L16.5 1.5" stroke="#FFD700" stroke-width="0.5"/>
    </g>
  </g>
  
  <!-- Sparkling effects -->
  <g>
    <circle cx="33" cy="40" r="0.5" fill="#FFD700">
      <animate attributeName="opacity" values="1;0;1" dur="2s" repeatCount="indefinite"/>
    </circle>
    <circle cx="67" cy="50" r="0.5" fill="#FFD700">
      <animate attributeName="opacity" values="1;0;1" dur="1.5s" repeatCount="indefinite"/>
    </circle>
    <circle cx="50" cy="60" r="0.5" fill="#FFD700">
      <animate attributeName="opacity" values="1;0;1" dur="2.5s" repeatCount="indefinite"/>
    </circle>
  </g>
</svg>